<svg width="20" height="21" viewBox="0 0 20 21" fill="none" xmlns="http://www.w3.org/2000/svg">
<path d="M19.1737 15.5991L17.1767 13.6063C16.8153 13.2458 16.3626 12.99 15.867 12.8661C15.3713 12.7422 14.8512 12.7549 14.3622 12.9028C13.8732 13.0507 13.4336 13.3283 13.0903 13.706C12.747 14.0837 12.5128 14.5472 12.4128 15.0473C9.11975 14.4328 5.91695 11.2498 5.7176 8.40479C6.27743 8.30202 6.79266 8.03163 7.19476 7.62956C7.72419 7.10116 8.02161 6.38454 8.02161 5.63732C8.02161 4.8901 7.72419 4.17349 7.19476 3.64509L5.19837 1.65228C4.66887 1.12395 3.95075 0.827148 3.20198 0.827148C2.4532 0.827148 1.73509 1.12395 1.20559 1.65228C-4.78415 7.62956 13.1839 25.5602 19.1737 19.583C19.7028 19.0545 20 18.338 20 17.591C20 16.844 19.7028 16.1275 19.1737 15.5991Z" fill="black"/>
</svg>
