<svg width="90" height="46" viewBox="0 0 90 46" fill="none" xmlns="http://www.w3.org/2000/svg">
<path d="M47.8037 44.9136L88.9304 5.87795C89.617 5.22662 90 4.36128 90 3.46142C90 2.56156 89.617 1.69623 88.9304 1.0449L88.884 1.00287C88.5511 0.68602 88.1505 0.433727 87.7065 0.261322C87.2624 0.0889165 86.7842 7.34826e-06 86.301 7.30601e-06C85.8177 7.26377e-06 85.3395 0.0889164 84.8955 0.261322C84.4514 0.433727 84.0508 0.686019 83.718 1.00287L44.9923 37.7621L6.28206 1.00286C5.94922 0.686013 5.54859 0.43372 5.10453 0.261315C4.66048 0.0889093 4.18229 1.26972e-07 3.69905 8.47253e-08C3.2158 4.24786e-08 2.73761 0.0889091 2.29356 0.261314C1.84951 0.43372 1.44888 0.686012 1.11605 1.00286L1.06957 1.04489C0.383007 1.69622 -3.83189e-06 2.56155 -3.91055e-06 3.46141C-3.98922e-06 4.36127 0.383007 5.22661 1.06957 5.87794L42.1963 44.9136C42.5579 45.2569 42.9929 45.5302 43.4749 45.717C43.9568 45.9037 44.4757 46 45 46C45.5243 46 46.0432 45.9037 46.5251 45.717C47.0071 45.5302 47.4421 45.2569 47.8037 44.9136Z" fill="#FFA600"/>
</svg>
